<svg viewBox="0 0 50 50">
  <path d="M25.044922 2C18.675979 2 13.354249 4.2203738 9.6796875 8.2421875C6.0051264 12.264001 4 18.026614 4 24.984375C4 31.939512 5.9641694 37.708932 9.6210938 41.740234C13.278018 45.771536 18.604924 48 25.044922 48C31.443326 48 36.74593 45.762992 40.390625 41.728516C44.03532 37.69404 46 31.925415 46 24.984375C46 18.028757 44.019689 12.26908 40.367188 8.2460938C36.714686 4.2231075 31.413384 2 25.044922 2 z M 25.044922 4C30.95446 4 35.630721 6.0035798 38.886719 9.5898438C42.142717 13.176108 44 18.406993 44 24.984375C44 31.549335 42.155305 36.790195 38.90625 40.386719C35.657195 43.983243 30.983517 46 25.044922 46C19.05992 46 14.362341 43.988932 11.103516 40.396484C7.8446896 36.804036 6 31.564238 6 24.984375C6 18.409136 7.8785611 13.179233 11.15625 9.5917969C14.433939 6.0043606 19.134865 4 25.044922 4 z M 25.042969 9C21.095249 9 17.747853 10.605403 15.478516 13.429688C13.209178 16.253972 12 20.232871 12 24.986328C12 29.722148 13.176799 33.706049 15.431641 36.542969C17.686482 39.379889 21.039764 41 25.042969 41C28.993222 41 32.322365 39.376711 34.568359 36.541016C36.814354 33.705321 38 29.72317 38 24.986328C38 20.23498 36.807127 16.2568 34.556641 13.431641C32.306154 10.606481 28.977693 9 25.042969 9 z M 25.042969 11C28.449245 11 31.099424 12.301644 32.992188 14.677734C34.884951 17.053825 36 20.570677 36 24.986328C36 29.388487 34.890256 32.912273 33 35.298828C31.109744 37.685383 28.461716 39 25.042969 39C21.563173 39 18.893955 37.684158 16.998047 35.298828C15.102138 32.913498 14 29.389508 14 24.986328C14 20.572786 15.127197 17.058606 17.037109 14.681641C18.947022 12.304675 21.621689 11 25.042969 11 z" fill="#FFFFFF" />
</svg>