<svg viewBox="0 0 50 50">
  <path d="M25 2C12.308594 2 2 12.308594 2 25C2 37.691406 12.308594 48 25 48C37.691406 48 48 37.691406 48 25C48 12.308594 37.691406 2 25 2 Z M 25 4C36.609375 4 46 13.390625 46 25C46 31.433594 43.109375 37.179688 38.5625 41.03125C38.078125 39.890625 37.085938 38.140625 35.3125 36.75C35.914063 36.457031 36.472656 36.152344 36.96875 35.84375C39.542969 34.25 40.8125 32.5625 40.8125 32.5625L41 32.28125L41 31.9375C40.953125 25.671875 38.433594 21.5 38.0625 20.90625C39.136719 18.042969 38.675781 15.585938 37.8125 13.9375C36.898438 12.1875 35.59375 11.1875 35.59375 11.1875L34.90625 10.6875L34.28125 11.28125L30.71875 14.84375C29.933594 14.527344 28.132813 13.90625 25 13.90625C21.867188 13.90625 20.066406 14.527344 19.28125 14.84375L15.71875 11.28125L15.09375 10.6875L14.40625 11.1875C14.40625 11.1875 13.101563 12.1875 12.1875 13.9375C11.324219 15.585938 10.863281 18.042969 11.9375 20.90625C11.566406 21.5 9.046875 25.671875 9 31.9375L9 32.28125L9.1875 32.5625C9.1875 32.5625 10.457031 34.25 13.03125 35.84375C13.519531 36.148438 14.066406 36.460938 14.65625 36.75C12.894531 38.132813 11.921875 39.894531 11.4375 41.03125C6.890625 37.179688 4 31.433594 4 25C4 13.390625 13.390625 4 25 4 Z M 15.0625 13.5L18.28125 16.71875L18.8125 17.21875L19.4375 16.90625C19.4375 16.90625 21.429688 15.90625 25 15.90625C28.570313 15.90625 30.5625 16.90625 30.5625 16.90625L31.1875 17.21875L31.71875 16.71875L34.9375 13.5C35.265625 13.808594 35.5625 13.949219 36.03125 14.84375C36.734375 16.1875 37.203125 18.046875 36.09375 20.59375L35.875 21.09375L36.15625 21.53125C36.15625 21.53125 38.808594 25.691406 38.96875 31.59375C38.722656 31.898438 37.882813 32.902344 35.90625 34.125C33.605469 35.550781 30.054688 37 25 37C19.945313 37 16.394531 35.550781 14.09375 34.125C12.117188 32.902344 11.277344 31.898438 11.03125 31.59375C11.191406 25.691406 13.84375 21.53125 13.84375 21.53125L14.125 21.09375L13.90625 20.59375C12.796875 18.046875 13.265625 16.1875 13.96875 14.84375C14.4375 13.949219 14.734375 13.808594 15.0625 13.5 Z M 20 22C17.800781 22 16 23.800781 16 26C16 28.199219 17.800781 30 20 30C22.199219 30 24 28.199219 24 26C24 23.800781 22.199219 22 20 22 Z M 30 22C27.800781 22 26 23.800781 26 26C26 28.199219 27.800781 30 30 30C32.199219 30 34 28.199219 34 26C34 23.800781 32.199219 22 30 22 Z M 20 24C21.117188 24 22 24.882813 22 26C22 27.117188 21.117188 28 20 28C18.882813 28 18 27.117188 18 26C18 24.882813 18.882813 24 20 24 Z M 30 24C31.117188 24 32 24.882813 32 26C32 27.117188 31.117188 28 30 28C28.882813 28 28 27.117188 28 26C28 24.882813 28.882813 24 30 24 Z M 22.5 31L25 33.5L27.5 31 Z M 16.90625 37.65625C19.105469 38.429688 21.789063 39 25 39C28.222656 39 30.921875 38.433594 33.125 37.65625C35.652344 39.074219 36.640625 41.523438 36.90625 42.3125C33.527344 44.636719 29.417969 46 25 46C20.582031 46 16.472656 44.636719 13.09375 42.3125C13.359375 41.523438 14.371094 39.054688 16.90625 37.65625Z" fill="#DF691A" />
</svg>