<svg viewBox="0 0 50 50">
  <path d="M25 0C21.777344 0 19.5625 1.09375 19.5625 1.09375C19.304688 1.21875 19.113281 1.445313 19.035156 1.722656C18.960938 1.996094 19.003906 2.289063 19.15625 2.53125L23.4375 9.1875L18 42.84375C17.945313 43.164063 18.050781 43.488281 18.28125 43.71875L24.28125 49.71875C24.46875 49.914063 24.730469 50.023438 25 50.023438C25.269531 50.023438 25.53125 49.914063 25.71875 49.71875L31.71875 43.71875C31.949219 43.488281 32.054688 43.164063 32 42.84375L26.5625 9.1875L30.84375 2.53125C30.996094 2.289063 31.039063 1.996094 30.964844 1.722656C30.886719 1.445313 30.695313 1.21875 30.4375 1.09375C30.4375 1.09375 28.222656 0 25 0 Z M 25 2C26.59375 2 27.710938 2.25 28.5 2.5L25 7.9375L21.5 2.5C22.289063 2.25 23.40625 2 25 2 Z M 25 12.25L29.90625 42.65625L25 47.5625L20.09375 42.65625Z" fill="#FFFFFF" />
</svg>