<svg viewBox="0 0 50 50">
  <path d="M6 3 A 1.0001 1.0001 0 0 0 5.1679688 4.5546875L18.798828 25L5.1679688 45.445312 A 1.0001 1.0001 0 0 0 6 47L14.558594 47 A 1.0001 1.0001 0 0 0 15.378906 46.572266L25 32.75L34.621094 46.572266 A 1.0001 1.0001 0 0 0 35.441406 47L44 47 A 1.0001 1.0001 0 0 0 44.832031 45.445312L31.201172 25L44.832031 4.5546875 A 1.0001 1.0001 0 0 0 44 3L35.441406 3 A 1.0001 1.0001 0 0 0 34.621094 3.4277344L25 17.25L15.378906 3.4277344 A 1.0001 1.0001 0 0 0 14.558594 3L6 3 z M 7.8691406 5L14.035156 5L24.179688 19.572266 A 1.0001 1.0001 0 0 0 25.820312 19.572266L35.964844 5L42.130859 5L29.167969 24.445312 A 1.0001 1.0001 0 0 0 29.167969 25.554688L42.130859 45L35.964844 45L25.820312 30.427734 A 1.0001 1.0001 0 0 0 24.179688 30.427734L14.035156 45L7.8691406 45L20.832031 25.554688 A 1.0001 1.0001 0 0 0 20.832031 24.445312L7.8691406 5 z" fill="#FFFFFF" />
</svg>